<mxfile host="app.diagrams.net" modified="2021-05-20T05:41:50.946Z" agent="5.0 (Macintosh; Intel Mac OS X 10_15_6) AppleWebKit/605.1.15 (KHTML, like Gecko) Version/14.0.1 Safari/605.1.15" etag="15rNrIJ86Apy4iknhJcU" version="14.6.13" type="github">
  <diagram name="Page-1" id="82e54ff1-d628-8f03-85c4-9753963a91cd">
    <mxGraphModel dx="1058" dy="545" grid="1" gridSize="10" guides="1" tooltips="1" connect="1" arrows="1" fold="1" page="1" pageScale="1" pageWidth="1100" pageHeight="850" background="#ffffff" math="0" shadow="0">
      <root>
        <mxCell id="0" />
        <mxCell id="1" parent="0" />
        <mxCell id="4ec97bd9e5d20128-1" value="" style="line;strokeWidth=2;html=1;fillColor=none;fontSize=28;fontColor=#004D99;strokeColor=#004D99;" parent="1" vertex="1">
          <mxGeometry x="40" y="400" width="1000" height="10" as="geometry" />
        </mxCell>
        <mxCell id="4ec97bd9e5d20128-5" value="5.1 @15th Jun" style="shape=offPageConnector;whiteSpace=wrap;html=1;fillColor=#0075E8;fontSize=15;fontColor=#FFFFFF;size=0.5093750000000015;verticalAlign=top;strokeColor=none;flipH=0;" parent="1" vertex="1">
          <mxGeometry x="140.5" y="340" width="120" height="50" as="geometry" />
        </mxCell>
        <mxCell id="4ec97bd9e5d20128-6" value="&lt;span&gt;5.3 @ &amp;nbsp;15th Aug&lt;/span&gt;" style="shape=offPageConnector;whiteSpace=wrap;html=1;fillColor=#0075E8;fontSize=15;fontColor=#FFFFFF;size=0.5093750000000015;verticalAlign=top;strokeColor=none;flipH=0;" parent="1" vertex="1">
          <mxGeometry x="580" y="340" width="140" height="40" as="geometry" />
        </mxCell>
        <mxCell id="4ec97bd9e5d20128-7" value="&lt;span&gt;5.2 &amp;nbsp;@ 15th Jul&lt;/span&gt;" style="shape=offPageConnector;whiteSpace=wrap;html=1;fillColor=#0075E8;fontSize=15;fontColor=#FFFFFF;size=0.4178571428571445;flipV=1;verticalAlign=bottom;strokeColor=none;spacingBottom=4;flipH=1;" parent="1" vertex="1">
          <mxGeometry x="360" y="425" width="147" height="45" as="geometry" />
        </mxCell>
        <mxCell id="4ec97bd9e5d20128-8" value="Alpha launch &lt;br&gt;@ 15th Oct" style="shape=offPageConnector;whiteSpace=wrap;html=1;fillColor=#0075E8;fontSize=15;fontColor=#FFFFFF;size=0.4178571428571445;flipV=1;verticalAlign=bottom;strokeColor=none;spacingBottom=4;flipH=1;" parent="1" vertex="1">
          <mxGeometry x="800" y="425" width="160" height="55" as="geometry" />
        </mxCell>
        <mxCell id="4ec97bd9e5d20128-9" value="" style="ellipse;whiteSpace=wrap;html=1;fillColor=#61BAFF;fontSize=28;fontColor=#004D99;strokeWidth=3;strokeColor=#004D99;" parent="1" vertex="1">
          <mxGeometry x="190" y="395" width="20" height="20" as="geometry" />
        </mxCell>
        <mxCell id="4ec97bd9e5d20128-10" value="" style="ellipse;whiteSpace=wrap;html=1;fillColor=#61BAFF;fontSize=28;fontColor=#004D99;strokeWidth=3;strokeColor=#004D99;" parent="1" vertex="1">
          <mxGeometry x="417" y="395" width="20" height="20" as="geometry" />
        </mxCell>
        <mxCell id="4ec97bd9e5d20128-11" value="" style="ellipse;whiteSpace=wrap;html=1;fillColor=#61BAFF;fontSize=28;fontColor=#004D99;strokeWidth=3;strokeColor=#004D99;" parent="1" vertex="1">
          <mxGeometry x="643" y="395" width="20" height="20" as="geometry" />
        </mxCell>
        <mxCell id="4ec97bd9e5d20128-13" value="" style="ellipse;whiteSpace=wrap;html=1;fillColor=#61BAFF;fontSize=28;fontColor=#004D99;strokeWidth=3;strokeColor=#004D99;" parent="1" vertex="1">
          <mxGeometry x="870" y="395" width="20" height="20" as="geometry" />
        </mxCell>
        <mxCell id="4ec97bd9e5d20128-14" value="&lt;h3&gt;&lt;font style=&quot;font-size: 12px&quot;&gt;BNPL Account Create&lt;/font&gt;&amp;nbsp;&lt;/h3&gt;&lt;h3&gt;&lt;ul&gt;&lt;li style=&quot;text-align: left&quot;&gt;&lt;span style=&quot;font-size: 13px ; font-weight: normal&quot;&gt;ETN&amp;nbsp;&lt;/span&gt;&lt;font style=&quot;font-size: 13px ; font-weight: normal&quot;&gt;Onboarding&lt;/font&gt;&lt;/li&gt;&lt;li style=&quot;text-align: left&quot;&gt;&lt;font size=&quot;2&quot;&gt;&lt;span style=&quot;font-weight: normal&quot;&gt;Credit Risk ETN application&lt;/span&gt;&lt;/font&gt;&lt;/li&gt;&lt;li style=&quot;text-align: left&quot;&gt;&lt;span style=&quot;font-weight: normal ; font-size: small&quot;&gt;Create BNPL Account&lt;/span&gt;&lt;/li&gt;&lt;li style=&quot;text-align: left&quot;&gt;&lt;span style=&quot;font-weight: normal ; font-size: small&quot;&gt;Show account details&lt;/span&gt;&lt;/li&gt;&lt;li style=&quot;text-align: left&quot;&gt;&lt;span style=&quot;font-weight: normal ; font-size: small&quot;&gt;PSGL Balance Report&lt;/span&gt;&lt;/li&gt;&lt;/ul&gt;&lt;/h3&gt;" style="text;html=1;spacing=5;spacingTop=-20;whiteSpace=wrap;overflow=hidden;strokeColor=none;strokeWidth=3;fillColor=#E6E6E6;fontSize=13;fontColor=#000000;align=center;" parent="1" vertex="1">
          <mxGeometry x="70" y="430" width="230" height="140" as="geometry" />
        </mxCell>
        <mxCell id="4ec97bd9e5d20128-16" value="&lt;h3&gt;&lt;font style=&quot;font-size: 12px&quot;&gt;BNPL Servicing &amp;amp; Payments&lt;/font&gt;&amp;nbsp;&lt;/h3&gt;&lt;h3&gt;&lt;ul&gt;&lt;li style=&quot;text-align: left&quot;&gt;&lt;span style=&quot;font-weight: normal ; font-size: small&quot;&gt;Purchase product via bnpl ac&lt;/span&gt;&lt;/li&gt;&lt;li style=&quot;text-align: left&quot;&gt;&lt;span style=&quot;font-weight: normal ; font-size: small&quot;&gt;repayment for bnpl&lt;/span&gt;&lt;/li&gt;&lt;li style=&quot;text-align: left&quot;&gt;&lt;span style=&quot;font-weight: normal ; font-size: small&quot;&gt;Show transactions &amp;amp; balances&lt;/span&gt;&lt;/li&gt;&lt;li style=&quot;text-align: left&quot;&gt;&lt;font size=&quot;2&quot;&gt;&lt;span style=&quot;font-weight: normal&quot;&gt;CRM bnpl 360 - enquiry&lt;/span&gt;&lt;/font&gt;&lt;/li&gt;&lt;li style=&quot;text-align: left&quot;&gt;&lt;font size=&quot;2&quot;&gt;&lt;span style=&quot;font-weight: normal&quot;&gt;Datalake&amp;nbsp;syncope datastore for&amp;nbsp;&lt;/span&gt;&lt;span style=&quot;font-weight: normal&quot;&gt;accounts,transactions,balances&lt;/span&gt;&lt;/font&gt;&lt;/li&gt;&lt;li style=&quot;text-align: left&quot;&gt;&lt;font size=&quot;2&quot;&gt;&lt;span style=&quot;font-weight: normal&quot;&gt;Risk - DHN blacklist&lt;/span&gt;&lt;/font&gt;&lt;/li&gt;&lt;li style=&quot;text-align: left&quot;&gt;&lt;font size=&quot;2&quot;&gt;&lt;span style=&quot;font-weight: normal&quot;&gt;PSGL&amp;amp;PSFTP transactions reports&lt;/span&gt;&lt;/font&gt;&lt;/li&gt;&lt;/ul&gt;&lt;/h3&gt;&lt;h3&gt;&lt;p&gt;&lt;/p&gt;&lt;/h3&gt;" style="text;html=1;spacing=5;spacingTop=-20;whiteSpace=wrap;overflow=hidden;strokeColor=none;strokeWidth=3;fillColor=#E6E6E6;fontSize=13;fontColor=#000000;align=center;" parent="1" vertex="1">
          <mxGeometry x="308" y="170" width="251" height="200" as="geometry" />
        </mxCell>
        <mxCell id="4ec97bd9e5d20128-17" value="&lt;h3 style=&quot;text-align: center&quot;&gt;&lt;span style=&quot;text-align: left ; font-size: 12px&quot;&gt;Adv Servicing &amp;amp; Reports&lt;/span&gt;&lt;br&gt;&lt;/h3&gt;&lt;h3&gt;&lt;ul&gt;&lt;li style=&quot;text-align: left&quot;&gt;&lt;font size=&quot;2&quot;&gt;&lt;span style=&quot;font-weight: normal&quot;&gt;CRM Servicing requests&lt;/span&gt;&lt;/font&gt;&lt;/li&gt;&lt;li style=&quot;text-align: left&quot;&gt;&lt;font size=&quot;2&quot;&gt;&lt;span style=&quot;font-weight: normal&quot;&gt;Statement generation&lt;/span&gt;&lt;/font&gt;&lt;/li&gt;&lt;li style=&quot;text-align: left&quot;&gt;&lt;span style=&quot;font-size: small ; font-weight: normal&quot;&gt;Payment reminder notifications&lt;/span&gt;&lt;/li&gt;&lt;li style=&quot;text-align: left&quot;&gt;&lt;span style=&quot;font-size: small ; font-weight: normal&quot;&gt;CRM bnpl 360 - enquiry&lt;/span&gt;&lt;br&gt;&lt;/li&gt;&lt;li style=&quot;text-align: left&quot;&gt;&lt;span style=&quot;font-weight: normal ; font-size: small&quot;&gt;IFROS reg report&lt;/span&gt;&lt;/li&gt;&lt;li style=&quot;text-align: left&quot;&gt;&lt;span style=&quot;font-weight: normal ; font-size: small&quot;&gt;Risk CACS collection report&lt;/span&gt;&lt;/li&gt;&lt;/ul&gt;&lt;/h3&gt;" style="text;html=1;spacing=5;spacingTop=-20;whiteSpace=wrap;overflow=hidden;strokeColor=none;strokeWidth=3;fillColor=#E6E6E6;fontSize=13;fontColor=#000000;align=center;" parent="1" vertex="1">
          <mxGeometry x="545" y="430" width="235" height="160" as="geometry" />
        </mxCell>
        <mxCell id="4ec97bd9e5d20128-18" value="&lt;h3&gt;&lt;span style=&quot;font-size: 12px&quot;&gt;Golive - Staff Launch&lt;/span&gt;&lt;/h3&gt;" style="text;html=1;spacing=5;spacingTop=-20;whiteSpace=wrap;overflow=hidden;strokeColor=none;strokeWidth=3;fillColor=#E6E6E6;fontSize=13;fontColor=#000000;align=center;" parent="1" vertex="1">
          <mxGeometry x="805" y="345" width="150" height="30" as="geometry" />
        </mxCell>
      </root>
    </mxGraphModel>
  </diagram>
</mxfile>
